<svg width="37" height="37" viewBox="0 0 37 37" fill="none" xmlns="http://www.w3.org/2000/svg">
<path fill-rule="evenodd" clip-rule="evenodd" d="M11.1771 7.19037C12.5184 5.19083 14.8355 3.08337 18.5 3.08337C22.1646 3.08337 24.4817 5.19083 25.8229 7.19037C26.7088 8.53336 27.3532 10.0208 27.7269 11.5857L30.0934 23.7864C30.2232 24.4559 30.2033 25.1458 30.0352 25.8067C29.8671 26.4677 29.5549 27.0832 29.121 27.6093C28.6871 28.1355 28.1423 28.5591 27.5254 28.85C26.9086 29.1408 26.2351 29.2917 25.5532 29.2917H11.4469C10.7649 29.2917 10.0914 29.1408 9.4746 28.85C8.85778 28.5591 8.31291 28.1355 7.87902 27.6093C7.44512 27.0832 7.13295 26.4677 6.96485 25.8067C6.79675 25.1458 6.77689 24.4559 6.90669 23.7864L9.27315 11.5857C9.64671 10.0203 10.2911 8.53382 11.1771 7.19037Z" fill="#007DBB"/>
<path fill-rule="evenodd" clip-rule="evenodd" d="M13.1257 30.8334C13.5142 31.5734 14.1093 32.3488 15.0112 32.9408C15.9516 33.5575 17.1325 33.9167 18.5724 33.9167C20.0108 33.9167 21.1933 33.5575 22.1337 32.9408C23.0356 32.3488 23.6291 31.5749 24.0191 30.8334H13.1257Z" fill="black"/>
<path fill-rule="evenodd" clip-rule="evenodd" d="M26.6601 3.535C26.371 3.8241 26.2087 4.21616 26.2087 4.62496C26.2087 5.03375 26.371 5.42581 26.6601 5.71491C27.9335 6.98833 28.6056 8.23708 29.3379 11.1662C29.4396 11.5603 29.693 11.8982 30.0429 12.1061C30.3927 12.3141 30.8105 12.3753 31.2053 12.2764C31.6001 12.1775 31.9397 11.9265 32.1502 11.5782C32.3606 11.2299 32.4248 10.8125 32.3288 10.417C31.5194 7.1795 30.6484 5.34491 28.84 3.535C28.5509 3.24598 28.1588 3.08362 27.75 3.08362C27.3412 3.08362 26.9492 3.24598 26.6601 3.535ZM10.34 3.535C10.629 3.8241 10.7914 4.21616 10.7914 4.62496C10.7914 5.03375 10.629 5.42581 10.34 5.71491C9.06656 6.98833 8.39439 8.23708 7.6621 11.1662C7.56039 11.5603 7.30699 11.8982 6.95717 12.1061C6.60735 12.3141 6.18949 12.3753 5.79472 12.2764C5.39995 12.1775 5.0603 11.9265 4.84984 11.5782C4.63938 11.2299 4.57519 10.8125 4.67126 10.417C5.48064 7.1795 6.35168 5.34491 8.16006 3.535C8.44916 3.24598 8.84122 3.08362 9.25002 3.08362C9.65881 3.08362 10.0509 3.24598 10.34 3.535Z" fill="black"/>
<circle cx="7.70829" cy="21.5833" r="6.16667" fill="#FF914C"/>
</svg>
