<svg width="32" height="32" viewBox="0 0 32 32" fill="none" xmlns="http://www.w3.org/2000/svg">
<path d="M25.8462 31.9981H6.15385C4.52234 31.9961 2.95823 31.3472 1.80458 30.1935C0.650932 29.0399 0.00195429 27.4757 0 25.8442V12.3058C0 11.9794 0.12967 11.6663 0.360484 11.4355C0.591298 11.2047 0.904349 11.075 1.23077 11.075H30.7692C31.0957 11.075 31.4087 11.2047 31.6395 11.4355C31.8703 11.6663 32 11.9794 32 12.3058V25.8442C31.998 27.4757 31.3491 29.0399 30.1954 30.1935C29.0418 31.3472 27.4777 31.9961 25.8462 31.9981ZM2.46154 13.5366V25.8442C2.46154 26.8235 2.85055 27.7627 3.54299 28.4551C4.23543 29.1475 5.17459 29.5366 6.15385 29.5366H25.8462C26.8254 29.5366 27.7646 29.1475 28.457 28.4551C29.1495 27.7627 29.5385 26.8235 29.5385 25.8442V13.5366H2.46154Z" fill="#FF914C"/>
<path d="M30.7692 13.5385H1.23077C0.904349 13.5385 0.591298 13.4088 0.360484 13.178C0.12967 12.9472 0 12.6341 0 12.3077V6.15385C0.00195429 4.52234 0.650932 2.95822 1.80458 1.80458C2.95823 0.650932 4.52234 0.00195429 6.15385 0H25.8462C27.4777 0.00195429 29.0418 0.650932 30.1954 1.80458C31.3491 2.95822 31.998 4.52234 32 6.15385V12.3077C32 12.6341 31.8703 12.9472 31.6395 13.178C31.4087 13.4088 31.0957 13.5385 30.7692 13.5385ZM2.46154 11.0769H29.5385V6.15385C29.5385 5.17458 29.1495 4.23543 28.457 3.54299C27.7646 2.85055 26.8254 2.46154 25.8462 2.46154H6.15385C5.17459 2.46154 4.23543 2.85055 3.54299 3.54299C2.85055 4.23543 2.46154 5.17458 2.46154 6.15385V11.0769Z" fill="#FF914C"/>
<path d="M9.84625 7.38462C9.51983 7.38462 9.20678 7.25495 8.97596 7.02413C8.74515 6.79332 8.61548 6.48027 8.61548 6.15385V1.23077C8.61548 0.904349 8.74515 0.591298 8.97596 0.360484C9.20678 0.12967 9.51983 0 9.84625 0C10.1727 0 10.4857 0.12967 10.7165 0.360484C10.9473 0.591298 11.077 0.904349 11.077 1.23077V6.15385C11.077 6.48027 10.9473 6.79332 10.7165 7.02413C10.4857 7.25495 10.1727 7.38462 9.84625 7.38462Z" fill="#FF914C"/>
<path d="M23.3807 7.38462C23.0543 7.38462 22.7412 7.25495 22.5104 7.02413C22.2796 6.79332 22.1499 6.48027 22.1499 6.15385V1.23077C22.1499 0.904349 22.2796 0.591298 22.5104 0.360484C22.7412 0.12967 23.0543 0 23.3807 0C23.7071 0 24.0201 0.12967 24.251 0.360484C24.4818 0.591298 24.6114 0.904349 24.6114 1.23077V6.15385C24.6114 6.48027 24.4818 6.79332 24.251 7.02413C24.0201 7.25495 23.7071 7.38462 23.3807 7.38462Z" fill="#FF914C"/>
<path d="M9.84557 9.84758C11.205 9.84758 12.3071 8.74551 12.3071 7.38604C12.3071 6.02657 11.205 4.9245 9.84557 4.9245C8.4861 4.9245 7.38403 6.02657 7.38403 7.38604C7.38403 8.74551 8.4861 9.84758 9.84557 9.84758Z" fill="#FF914C"/>
<path d="M23.3856 9.84758C24.7451 9.84758 25.8471 8.74551 25.8471 7.38604C25.8471 6.02657 24.7451 4.9245 23.3856 4.9245C22.0261 4.9245 20.9241 6.02657 20.9241 7.38604C20.9241 8.74551 22.0261 9.84758 23.3856 9.84758Z" fill="#FF914C"/>
<path d="M14.766 19.6908H7.3814C7.05498 19.6908 6.74193 19.5611 6.51112 19.3303C6.2803 19.0995 6.15063 18.7864 6.15063 18.46C6.15063 18.1336 6.2803 17.8205 6.51112 17.5897C6.74193 17.3589 7.05498 17.2292 7.3814 17.2292H14.766C15.0924 17.2292 15.4055 17.3589 15.6363 17.5897C15.8671 17.8205 15.9968 18.1336 15.9968 18.46C15.9968 18.7864 15.8671 19.0995 15.6363 19.3303C15.4055 19.5611 15.0924 19.6908 14.766 19.6908Z" fill="#FF914C"/>
<path d="M19.6891 24.6152H7.3814C7.05498 24.6152 6.74193 24.4856 6.51112 24.2547C6.2803 24.0239 6.15063 23.7109 6.15063 23.3845C6.15063 23.058 6.2803 22.745 6.51112 22.5142C6.74193 22.2834 7.05498 22.1537 7.3814 22.1537H19.6891C20.0155 22.1537 20.3286 22.2834 20.5594 22.5142C20.7902 22.745 20.9199 23.058 20.9199 23.3845C20.9199 23.7109 20.7902 24.0239 20.5594 24.2547C20.3286 24.4856 20.0155 24.6152 19.6891 24.6152Z" fill="#FF914C"/>
</svg>
