<svg width="33" height="32" viewBox="0 0 33 32" fill="none" xmlns="http://www.w3.org/2000/svg">
<path d="M16.7207 31.2583C16.9478 30.5354 17.1714 29.8251 17.4152 29.0498C21.5624 29.0498 25.8193 29.0498 30.102 29.0498C30.102 22.3349 30.102 15.6571 30.102 8.95759C21.1955 8.95759 12.2898 8.95759 3.35753 8.95759C3.35753 10.2418 3.35753 11.5163 3.35753 12.8173C2.60846 12.8173 1.88384 12.8173 1.1145 12.8173C1.1145 12.6971 1.1145 12.5734 1.1145 12.4503C1.1145 9.47353 1.1145 6.49674 1.1152 3.52066C1.1152 2.66565 1.54494 2.2385 2.40372 2.2385C3.63354 2.2378 4.86336 2.2385 6.13651 2.2385C6.13651 2.53702 6.13651 2.81176 6.13651 3.08651C6.13651 3.73738 6.12743 4.38894 6.1393 5.03981C6.15118 5.65292 6.61307 6.13181 7.22099 6.1395C8.35997 6.15348 9.49895 6.15558 10.6379 6.1395C11.257 6.13041 11.7077 5.63894 11.7133 4.99786C11.721 4.09322 11.7154 3.18788 11.7154 2.26017C15.0667 2.26017 18.3942 2.26017 21.7587 2.26017C21.7587 3.10259 21.7587 3.93662 21.7587 4.76995C21.7587 5.74311 22.1598 6.14509 23.1318 6.14509C24.0731 6.14509 25.0143 6.14509 25.9562 6.14509C26.9373 6.14509 27.337 5.7487 27.3384 4.77834C27.3391 3.96459 27.3419 3.15083 27.3447 2.33707C27.3447 2.3168 27.36 2.29583 27.3775 2.25038C27.4572 2.24689 27.5466 2.2385 27.636 2.2385C28.81 2.2378 29.9839 2.235 31.1571 2.2392C31.8929 2.24199 32.3583 2.70201 32.3583 3.43537C32.3597 12.307 32.3597 21.1786 32.3583 30.0502C32.3583 30.7808 31.909 31.2611 31.2081 31.2618C26.3964 31.266 21.5855 31.2639 16.7738 31.2639C16.7388 31.2632 16.7046 31.2562 16.7207 31.2583Z" fill="#FF914C"/>
<path d="M2.35763 16.7506C1.96073 16.7506 1.56733 16.7548 1.17323 16.7499C0.496823 16.7415 -0.00139459 16.2633 2.93275e-06 15.6306C0.00209922 14.9944 0.496125 14.5246 1.17882 14.519C1.8643 14.5141 2.54979 14.5141 3.23527 14.5183C3.94731 14.5225 4.36447 14.8895 4.4644 15.5866C4.65236 16.8953 4.84033 18.2033 5.03249 19.5379C8.82398 19.5379 12.5966 19.5379 16.4188 19.5379C16.2868 20.2076 16.1631 20.8403 16.0373 21.473C15.9241 22.0421 15.8123 22.6118 15.6928 23.1802C15.5153 24.0233 14.8725 24.5623 14.0137 24.5637C11.0041 24.5686 7.99455 24.5686 4.98498 24.5637C4.07589 24.5623 3.40368 23.9513 3.2765 23.0474C2.9949 21.0466 2.7098 19.0457 2.42401 17.0456C2.41213 16.9547 2.38418 16.8659 2.35763 16.7506Z" fill="#FF914C"/>
<path d="M10.0545 17.8475C10.0496 17.7783 10.0419 17.723 10.0426 17.6678C10.0454 15.7383 10.0468 13.8087 10.0552 11.8792C10.0573 11.3703 10.3019 11.1682 10.805 11.2116C11.8937 11.3046 12.9355 11.5618 13.8816 12.1246C15.4846 13.0782 16.291 14.5547 16.5949 16.3444C16.6774 16.8324 16.7074 17.3294 16.7647 17.8475C14.5063 17.8475 12.3031 17.8475 10.0545 17.8475Z" fill="#FF914C"/>
<path d="M15.6201 29.0337C15.6187 30.2684 14.6132 31.2674 13.3778 31.2625C12.1466 31.2576 11.1515 30.2474 11.1592 29.01C11.1662 27.7956 12.1689 26.7994 13.3841 26.7987C14.6202 26.798 15.6215 27.7984 15.6201 29.0337Z" fill="#FF914C"/>
<path d="M5.57964 31.2632C4.34562 31.2625 3.34429 30.2579 3.34779 29.024C3.35058 27.79 4.3582 26.7924 5.59431 26.7994C6.81225 26.8064 7.8038 27.8005 7.80939 29.0205C7.81498 30.2537 6.81155 31.2639 5.57964 31.2632Z" fill="#FF914C"/>
<path d="M10.042 2.26161C10.042 2.77336 10.0455 3.2851 10.0413 3.79614C10.0371 4.26944 9.83653 4.46449 9.35508 4.46938C9.05321 4.47218 8.75065 4.47497 8.44878 4.46868C8.03092 4.46029 7.8157 4.25965 7.81361 3.85207C7.80732 2.77056 7.80662 1.68974 7.81431 0.608231C7.8171 0.220229 8.03372 0.0153912 8.42782 0.00630282C8.76462 -0.00138732 9.10213 -0.00278553 9.43893 0.00630282C9.82674 0.0167894 10.035 0.227919 10.0406 0.621514C10.0476 1.16891 10.042 1.71491 10.042 2.26161Z" fill="#FF914C"/>
<path d="M23.4323 2.20284C23.4323 1.69109 23.4288 1.17935 23.4337 0.668306C23.4379 0.21249 23.6391 0.0125462 24.0947 0.00625431C24.4203 0.00205968 24.7459 -0.00213502 25.0709 0.00835153C25.4426 0.0202363 25.6578 0.227171 25.6606 0.598395C25.669 1.69109 25.669 2.78449 25.6606 3.87719C25.6578 4.24772 25.4412 4.45675 25.0716 4.46794C24.7348 4.47842 24.3973 4.47633 24.0604 4.46933C23.6482 4.46025 23.4399 4.25401 23.4344 3.84224C23.4267 3.29554 23.4323 2.74954 23.4323 2.20284Z" fill="#FF914C"/>
<path d="M20.6499 13.4019C20.9867 13.4019 21.3242 13.3977 21.661 13.4026C22.0991 13.4089 22.3059 13.6088 22.3143 14.0374C22.3206 14.3625 22.322 14.689 22.3136 15.014C22.3038 15.4097 22.1012 15.6264 21.7141 15.6313C20.9936 15.6404 20.2732 15.6411 19.5528 15.6306C19.1852 15.625 18.9805 15.4069 18.9707 15.0329C18.9616 14.6841 18.9602 14.3352 18.9707 13.9864C18.9826 13.6193 19.195 13.4131 19.5682 13.4033C19.9294 13.3949 20.29 13.4019 20.6499 13.4019Z" fill="#FF914C"/>
<path d="M26.2218 15.6333C25.8612 15.6333 25.5014 15.6417 25.1408 15.6312C24.7691 15.6207 24.5615 15.4124 24.551 15.0412C24.5406 14.693 24.5406 14.3435 24.5503 13.9946C24.5608 13.6248 24.7705 13.4095 25.1401 13.4046C25.8605 13.3955 26.5809 13.3955 27.3014 13.4046C27.6724 13.4095 27.8806 13.6227 27.8918 13.9939C27.9023 14.3421 27.9023 14.6916 27.8918 15.0405C27.8806 15.4117 27.6724 15.6207 27.3021 15.6312C26.9422 15.6417 26.5816 15.6333 26.2218 15.6333Z" fill="#FF914C"/>
<path d="M20.6212 20.1C20.2725 20.1 19.9239 20.1077 19.5752 20.0979C19.186 20.0874 18.9791 19.8777 18.9701 19.4855C18.9624 19.1485 18.9617 18.8108 18.9707 18.4739C18.9805 18.0838 19.1888 17.8733 19.5822 17.8691C20.2907 17.8615 21 17.8615 21.7085 17.8698C22.0984 17.8747 22.3045 18.0873 22.3136 18.4809C22.322 18.8178 22.3227 19.1555 22.3136 19.4925C22.3031 19.8819 22.0942 20.0888 21.7022 20.0979C21.3417 20.1063 20.9818 20.0993 20.6212 20.1Z" fill="#FF914C"/>
<path d="M26.2287 17.8677C26.5655 17.8677 26.903 17.8635 27.2398 17.8684C27.678 17.8747 27.8848 18.0747 27.8939 18.5025C27.9002 18.8276 27.9009 19.1541 27.8932 19.4792C27.8841 19.8741 27.68 20.0916 27.2936 20.0965C26.5732 20.1056 25.8528 20.1063 25.1324 20.0958C24.7655 20.0902 24.5594 19.8707 24.5496 19.498C24.5405 19.1492 24.5398 18.8003 24.5503 18.4515C24.5615 18.0837 24.7732 17.8782 25.1477 17.8691C25.5083 17.8607 25.8689 17.8677 26.2287 17.8677Z" fill="#FF914C"/>
<path d="M20.6192 24.5652C20.2823 24.5652 19.9448 24.57 19.608 24.5645C19.1916 24.5575 18.9799 24.3547 18.9701 23.9492C18.9617 23.6123 18.9617 23.2746 18.9708 22.9376C18.9813 22.5489 19.1902 22.3392 19.5836 22.335C20.2921 22.3273 21.0014 22.3266 21.7099 22.335C22.097 22.3399 22.3039 22.5545 22.3137 22.9481C22.322 23.2851 22.322 23.6228 22.313 23.9597C22.3025 24.3484 22.0921 24.5547 21.6994 24.5631C21.3403 24.5714 20.9797 24.5652 20.6192 24.5652Z" fill="#FF914C"/>
</svg>
